<svg xmlns="http://www.w3.org/2000/svg" xmlns:xlink="http://www.w3.org/1999/xlink" xmlns:serif="http://www.serif.com/" viewBox="0 0 32 40" version="1.1" xml:space="preserve" style="" x="0px" y="0px" fill-rule="evenodd" clip-rule="evenodd" stroke-linejoin="round" stroke-miterlimit="2"><path d="M15.633,19.5c-1.257,2.378 -3.757,4 -6.633,4c-4.139,0 -7.5,-3.361 -7.5,-7.5c0,-4.139 3.361,-7.5 7.5,-7.5c2.876,-0 5.376,1.622 6.633,4l11.367,0c0.133,-0 0.26,0.053 0.354,0.146l3,3c0.195,0.196 0.195,0.512 -0,0.708l-3,3c-0.196,0.195 -0.512,0.195 -0.708,-0l-1.646,-1.647l-1.646,1.647c-0.196,0.195 -0.512,0.195 -0.708,-0l-1.646,-1.647l-1.646,1.647c-0.094,0.093 -0.221,0.146 -0.354,0.146l-3.367,-0Zm-11.133,-3.5c0,1.38 1.12,2.5 2.5,2.5c1.38,0 2.5,-1.12 2.5,-2.5c0,-1.38 -1.12,-2.5 -2.5,-2.5c-1.38,-0 -2.5,1.12 -2.5,2.5Z"/><text x="0" y="47" fill="#000000" font-size="5px" font-weight="bold" font-family="'Helvetica Neue', Helvetica, Arial-Unicode, Arial, Sans-serif">Created by Singlar</text><text x="0" y="52" fill="#000000" font-size="5px" font-weight="bold" font-family="'Helvetica Neue', Helvetica, Arial-Unicode, Arial, Sans-serif">from the Noun Project</text></svg>